# xmcd CD database file
#
# Track frame offsets:
#	150
#	13289
#	24744
#	36707
#	50368
#	63634
#	73793
#	86538
#	98155
#	112166
#	123582
#	136287
#	148101
#	159806
#	169464
#
# Disc length: 2435 seconds
#
# Revision: 0
# Processed by: cddbd v1.5.2PL0 Copyright (c) Steve Scherf et al.
# Submitted via: ACXtractor (MTCDDB.DLL V2003.12.21)
#
DISCID=e309810f
DTITLE=Mixed - Australian Vintage Country
DYEAR=2011
DGENRE=Country
TTITLE0=The Mailmans Warning - Smilin' Billy Blinkhorn
TTITLE1=I Can't Forget My Memories/ Buddy Williams
TTITLE2=Teardrops and Empty Arms - Shirley Thoms
TTITLE3=A Stockman's Prayer/ Tex Morton
TTITLE4=Pentridge Jail/ Buddy Williams
TTITLE5=Before the Dawn - Le Garde Twins
TTITLE6=I Cried Again/ Ron Peters
TTITLE7=My Mum and Dad/ Rocky Cameron
TTITLE8=McNamara's Rodeo/ Tim McNamara
TTITLE9=Nursery Rhyme Yodel/ Joan Ridgeway
TTITLE10=The Sunshine Mail/ Johnny Rivers
TTITLE11=Back to Those rolling Plains/ Gordon Parsons
TTITLE12=If It's Wrong to Love You/ Shirley Thoms
TTITLE13=You Rule My Heart/ Lily Connors
TTITLE14=Gallopalong/ Le Garde Twins
EXTD=ID3G:   2 YEAR: 2011
EXTT0=
EXTT1=
EXTT2=
EXTT3=
EXTT4=
EXTT5=
EXTT6=
EXTT7=
EXTT8=
EXTT9=
EXTT10=
EXTT11=
EXTT12=
EXTT13=
EXTT14=
PLAYORDER=
